<mxfile host="65bd71144e">
    <diagram id="YIDP6KyBGPiXPyZwaXkO" name="Page-1">
        <mxGraphModel dx="8373" dy="2760" grid="1" gridSize="10" guides="1" tooltips="1" connect="1" arrows="1" fold="1" page="1" pageScale="1" pageWidth="850" pageHeight="1100" math="0" shadow="0">
            <root>
                <mxCell id="0"/>
                <mxCell id="1" parent="0"/>
                <mxCell id="6" style="edgeStyle=none;html=1;exitX=0;exitY=0.5;exitDx=0;exitDy=0;fontFamily=Verdana;fontSize=60;" parent="1" source="3" edge="1">
                    <mxGeometry relative="1" as="geometry">
                        <mxPoint x="-1230" y="550" as="targetPoint"/>
                    </mxGeometry>
                </mxCell>
                <mxCell id="20" style="edgeStyle=none;html=1;exitX=0.5;exitY=1;exitDx=0;exitDy=0;" edge="1" parent="1" source="3">
                    <mxGeometry relative="1" as="geometry">
                        <mxPoint x="-210" y="4470" as="targetPoint"/>
                    </mxGeometry>
                </mxCell>
                <mxCell id="3" value="" style="shape=image;verticalLabelPosition=bottom;labelBackgroundColor=default;verticalAlign=top;aspect=fixed;imageAspect=0;image=data:image/jpeg,/9j/4AAQSkZJRgABAQAAAQABAAD/2wCEAAkGBxMSEhUTEhMVFhUVFhcXFRcWFRgVFxYVFxcaFhUVFxcYHSggGBolHhUVITEhJSkrLi4uFx8zODMtNygtLisBCgoKDg0OGxAQGi0lHyUtLy0tLS0tLS0tLS0tLS0tLS0tLS0tLS0tLS0tLS0tLS0tLS0tLS0tLS0tLS0tLS0tLf/AABEIALcBEwMBIgACEQEDEQH/xAAaAAADAQEBAQAAAAAAAAAAAAABAgMEAAUH/8QAOhAAAQMCBAQEBQQBBAAHAAAAAQACESExAxJBUSJhcYEEkaHwBRMyscFC0eHxUiNicoIGM5KissLS/8QAFwEBAQEBAAAAAAAAAAAAAAAAAAECA//EAB8RAQEAAgMAAgMAAAAAAAAAAAABMUECESEiMiNR8P/aAAwDAQACEQMRAD8A+MZjuUc3MpU0UXZxDMdyuzHcoLkDOdzKGY7nzXFBA2Y7lDMdyiBT371SoDmO580cx3PmlRKAlx3K4OO580pRCAhx3KGY7lALkDZjuUMx3K6KIIDmO5RLjulTEIBmO580cx39UqIQEk7oZjufNcQggYk7+qGY7nzQK5A2Y8/NDMdz5rkEDB3M+aGY7lcEEDZjuUMx3K4IIDmO5Rc47pUXBAcx3K4uO/qg1F6ovhGl0UMGwXLLcZk5skVDa2t1pzTRQR1UUXlKmeapSqHAoa+/f2SoiI5+/wCUEQESgmcPsFFArm3XOC5l1RwCCIQUDaXSpwad/f2SFUcExuUoTuufwgREWKCYWKAIJiKBKgZ55QlTPJpOyVAwt3SpwKTzSIGaQlTNddBBwXBc39/suCABM+6UJsQ1QKE+JdIE2J+ERfBsFy7BsFyy3GZUc2nf91NWeBHOVqMIom6CZ1yiueDNUCjiTNeS54+w+yDhY9kDZO1vCTPun7+iU2HdECE+ILRsNrxySBAIou5JsMSRG6DwQao4Vxa+tkAb0Sot/CCA6e+a5yoJyaRP7Kbv2+yAKhFTokFxp7uncamunLa1ERNOBQ9vukTixtp1voiucDASJ3AQPf8ASREO9sRWaJEzop0r1SoqrbC0z3spKwHCLnitHLdRRDNmvqgmYTBj3p+UIp3QFl+x225oD8I4TgCZmxFIuQRquaL9EUifFFfeyUJ8ccRuLXvZEIy6p4m4vYXSMFVTxbYI6DWU0bPhWC5dg2C5ZbjMtWO0gH/kZvNx+e6yq7suS5mbeWnnVbjFQCctqRz6a+iUJn3d/J13UV2KyDBXYoiOg+yGIIN5t6iVz3T5AeVEQwjLz/r+fRKbCm9VVpOQ0p15jTXTzU3N4QYvNd0CiyATi3f8JWorj+yr4d4a4EyADdsT2lJiEk15fugdeqDmRrtRAJsMGsbVQAoeyBgBl1me37boYl+w+wVAD8s2ie+n8KTnE1PTyEBKjmiopt3VH/UZpTroPvdTFxt/KsTxOgxT9U8pFa3VECqsfDHCTWIECDBNzfyUii+w6flRXaDulVMpgbfvH7KZRFcZxOWRFKKapitMN5gx0k/ypoLAHIDUDMazrGygtbBwNIyzmP8AyiNRssoSkPhtMGPdJ/B8kNB1P2COHMGD15jb1TRwA/7iPQIJFOzWunRIVRn6qj6d42RUwqeJ+o1kUr2CQXCt436zPL/4jdNIgFTxJEiIsLe7qbb0Wn4gOIW+kWEdldGwwrBcuwrLlhuMy0u/8v6db05aX781mWnExDkioAIpvIuNY4fVbjFZ2mqriuzFxE1JNamp1hSCphi+1J6SoExAJpan2qgQnx8s8Nu9+U1SGEF2tPyyZptHMa6X/wDbyU3xlFN6ze2ncKkNyCb1i+4tp/l6IYjOBpg1Jroenv8AihGvpHOZpaLWlIEWfvZAKKY3FIt/N1ztbXVMckOBJDog0pz0SPdM8zO9+aIVmtYoe/JFo4T1H5QZrSaHtzRa7hI3I7RP7ophGQ0MzfTpPnRTVhh/6ZdOopzFq/8AY0UdEqGtBG0+qvXO6rbdoECnOFPLVusgUE1qaf0qOEPcMoHDYxThBmkit+6sGZyfEFG9PyUrvyqY0ZWQRYzanEb/AMqDnMMNr5ilt9VFWLWw2CJ1n1naqklIpjgCAHE08um3RInxnNMZRFK9feqXQd0Fm4pLGsiRJdAvNlnC0YP6OLL9VaGOyztCUUw2S01t68lMBXwmgsMmINKgfpOmtQBTdQbdBxWjBP12HBvGo8zyUHCv3RxL2igQKRstHjmw8/8AXUH9LdlGKj8K3jGjOYzf9gQbC+aqujaOFenP7VWn4o+XN4i6GAExFRNByWbCAmv7dK6J/EtAIgyITSbPhWXLsKwXLDpGZbMRsYQlpvR0U0NTpTTnKxhenjNf8ieHLPPNdoiYi+Xn2XTjMufK4ea1Wwm0JIMACemYTqohXa4BpBuRAoD+qTU2tosxSeIc0nhEDpHpoldYe4RxnyZiKDzAAJ7kT3QLaD3PuUFWudkIyiN6A0OoufqHSQpPeYAkwLDQbwtGFhuOE4g0BqIG7P1XEyKa5DsszhZWkFo/P2XM1RwmzpNDrGl0GC9dFFHGbBsW0FD0qe90B9PdX+IA5qvD6DiEfj3XdSA4bG/a33V2g+HDuLLH0mZ2U9O90cOKzsY66IEUvrZRWhoHyichnNGeKaUnzpzCz6d1sa0/IJziM30QJ/Tr9XOLcJ1WT9Pc07CsK1IbCcS5sk0gT/iJuOmy1hubFfEP4ZkkUgNtAgxaix4JggwDFYNjFYK24D/m4r3ZJlkxmiIDW5i7U/8A6V4pf2w4lz1KVybEuep5+uqDhbostKucIbSLVIpz67qQF1pJMMmAKVvpSR0UIo73qrUhvENcMuYRw06SfWtkpFB3Wj4jhObkzPzSwEchtzHPVSLeFp3zehHvVLPSXxTAwSckNknNAMQYNfZWZmtdFr8O/D/08xIgOzZQQ4bSdVkbr0Qi+A0ZHZt6dcp2/wCt6QSs7brVgAfKcSP1QDFjH+XnRZWiffdLojnc02K2DaLLsRpmCUceJpNh9V7fZQcLj9Nq7c1o+JRnPGHilRH+IpDaCLU2WV8aGU4nK2hiTFOllewuDcUntPoq+NuOEClv35qeBOaka3tEGZjlKt8QHEJvAnbtOiaS5DCsuXYVguWHSMy9LxDcP5ArxzRoJ5CotEZq3nkvNWrxgGVkHSo1Fv58ua3MVzs9jOy6o4xlMChmOjrFTw73hVfixkLTVpJtrmka1UU3xDEc58uaWmAIdM95qf6UXEQLz/Kp4vxBxCHEAUAAFgB1JKXEYQ0WiKeZP5VuakwphfL+WZ+ueH6p/TERSI+ZM8lLEsL2V8DxcYbsLLOYzMwLsNWxUjJQzTM7dRxRRtNN5/pLgjsITSlATWmhtz/ZII97p8PGLdAaEVE3v3qlwwaxt91FKqgcE1+relrQpxTuqsachNLxztt3SBvBEw+GZ+Ez/tG/vZRIpMUm6OFjubOUkZhB5hBx+/ZNANBgrs5iJpMxztPoFzRf3qlRTNHSyOETMAkTQxsel+iDfwm8OONv/IaxqNdOqIOMKn/keWp00/hTdp0VfFDicK/W7WdTrr1SYmnQaR/fVKLMM/Ll8CTpOWIrzuFLNGYXnXoVcua0Mcww8RvNqyDS9o0WbEuep+6tIATBxtJgAwJtulCbDH2KilaE+GKGmiVl7wmwhQ0mnl7/AAiK+Fx2ta5rhOa1Aa5XDW1SDIrwxqoNutPg/F5A5uWc9JmI4XNqI4hxTFKtCzYbZPvqrcQc6/36yn8TE8JJEC4jSyGMDMHSn4/CPicdz3S4yYA8lAMZpETsEW4lAABIJrvMU9EuILUig+wldhtk3hAMM1BrfQwex0Wr4kKt483CKx7nqoeHjMJE8gJrECmtdFo+KshzaQMogERqTbS4Wp9al+0TwrLl2FYLlzdIzBb/AImRGHBkwZpA0sbGs2mwWELd8TxARhtE5mg5hoCYiN6b8l0mK5XMYmXQddNgiTeEH3OtVloDoq4kZREiled6jySPsOn5VcZrQ1sOkxb/ABrMepQRYKpsSzaAU/MV8vVKy4VMeMrPptWL/wDb3ugmWmJ09/sqYTTWsU9++ambX1NE+Hlrm7X/ABrZIE07rQyPlH6Zzf8AaIv/AMVnik81VmOcmSkTmtUmgidteyQqCs9hDZ0zRzmFFWxgIN82btEfdFIyIM9kidlj0/KRBXD1qPpOnp1UlfCF6kcBsJnlSw5qCBjbv+AqeIZGX6qtBrzm3JK4cIp38/fZIXTf2NkGzxL5w8PgItxEQDAg5TrNysuJEmLSYWzxof8ALZmyZeG05vo4M00+m0d6rCFrllnjgRYpsE3rFD/SWkHdPgG9QKG/2WVKy6bBs6ptp+UoFfNNhOjNWJB78vIlAjANbLmiqbDBpFapWCsFFPiMAIEzupu5KjhBAi3rU197JH3RD+IbBFZoOmw9AkbcTZV8TFIEUFOtfyp4ZANRKtyKeCnOIia3oIynNJFbTZavjY42yCDlEzMa/TOiz/D2ziDiLa0IIBsSACdTbuvQ/wDEzSHsBfm4BWhPWhPsLcnwrnyv5JHn4VguXYVly4u8Zwt3xTEnKMhaAKE60aDHKQTc1JWAFbfifiy8gRAaB1Mta2T2a0UAstzFc7mM3h72nl/aV9zSK225J/D/AFXi+2069ErxxGs1vvzU0o4lm9Pyq42OXMaMoAaAJFzeCfX13UsUUb03nU+SYM4ZB1qPfU+RVC4Ikik8uyt4twLcPiBhtgIy8iZr6b6yY4AlwpPK2iQ2U0GIEDfX35KuATxQAabxp69OSiTQDmfx/K0eHaSXQ6KVpy9OvNWZLhEDhml762sn8ODxQAaV5dEoHBMC99bWXYDZmk02nUX5X9FBJa/E4RDScwjPEazF+n8LKVp8TjscDDSHl0zM8MRGmsaJCpYToDhFwP2/Kkq4TTlfGgE9JH8KSCwxC36TdmV3Q3FR73UUzLpUVXE+kVM+lv6U1ox5yioIpzNup5+Y6DPolRXGx3ODWucSG/SCZAkKbUcW9I0tay5goeyDgKEzsmwHQTb6TfpP4SxQ0/hV8GwkugA8JNdLVt73CTJQwhxGPdeXZN4Vph8R9JmZtBtHuYXNHGQRNbd/Y7pvB4cjE4M0NNZAy0NRN7E0/wAVYlRw7CscV9qIYLQTBO/flJsmwyIAiTmmIuIS4ABME0g6gaUEm1dVFU8Rh5SKyNI2mfz91HEuq+IawGGSdN5/f+lLEv7orSNHjWARBDhArHIU8o81HDmRAror+NxQ6CG5aCgEDt6+ilgMLnAA1ulykwkBQ9lo8c6reHLDADWZImvLooigI1pH51RxxUVmnlyU0tyrhWC5dg2C5ZbjOy46rV8VB+YZIJpUdBRZsMVFJqKb8ls+MMjFIyZLcMg6X4aeS3PrXPv5Rm8OOIUm9OxQcOK0VttWyp4UnMIgUHO5At+6QfXUzxX3rdNLt2NiyGivCIr1Jp5phlyivFpyEjn19FBacNjslhlJFZrQkWn/AHAdwkCeGbLhSb6xoVMinf3VU8M0lwAE13jSSp5THf1hRTOByilJMH30TwA4hwNqTcGKWXYgdkBMZdN7mJ8nLT4YOa9wDZtPFam/6taCtOSsnrPfjIPpNBe+trdKK3gP1cbW0sSBmvQE21FN/JGs/wBMmB9UTraY6d1PABzCLzy/NEwt9IUEzhZKsq0eHw5ZiHYDXr+32WdafDNaWYkkSAMu+tvTzWZauIkzTYd0qpgNr/f4U1FVceAU1Naaab6jy6pYp3TOAyCpmbVjnpH+OuqAHD3/AAUB8Q2DFbC4ymw0XYTaOO0epU3OJqST1qix2mhie3PREP8ApJnam9VX4fh5i7gzwwmJAi1a+XdT/SeGbV2qpNcRYkSIoYobjorsrU0APImK3puP77LM15EwSJoYJEjY7jktODjE4hMCSZisbnfZZXXSivhQS4ZSAa36IYf1VtNek1qlwokZra9E/hIzcVoM3iYpMVAmLKQVxcNwLbRXJrLZzCY5OHmFDHbBqtfjW4YLcuIXN5k8I0A1AvS9J1CyYwE8JkK8p0kvamL9IrNtqU1jXTskwGNJAcYGqfEwiGtJAiBFa1l3/wBh5dUrXAEFwpqOSKkU+NE02r179lNaPHTmq3LA2iece7KaBwbBcuwrBcstxnatPxFzi8lxJNJLjJ6Tyt2WZgqOvVbvjTCMQgtDeQjc1pS8+S3MVzuYj4NozCZqKAa/vqYtRdhsnFiI4rbVtFVb4e052xq3WDcmkEwZ+mDEzos3iARiO4pIceIUkya0sro2iVvw8P8A0g7MQMwlp/UZbW/Pb9J2E4XXPVXwDLsMSTUCNuKw7QpFpvAYcvaMuaZpMTwk39eygbaTO9f6VvC4jWuBcCQCZAMaEfdIXjJE1zE5Y0i+b8Jo2DhwCurhG1qjz9Ft+HS9z3NIYBBIa0EQJmh+kUNdM3NZsRrPltIPHXMK7nt/jbcpvAfK4vm7cP1XrMR+r6Yml1ZlLgW4f+iXZR9cZv1fTOWIt31speDbL2jnsXegupNF+iLXlpkEgixFCoo4goO/36/skQTGyir+FAyYsg/SIjfML+SzL0fh0/J8RDZ4WyZjLUioit50q0Lz1biMy+3+0p4YcVTA1oT6BTC5oXBRpqxQfktqIzW1/Vz66fqbfSdPl883eINfZXPxWnDa0MhwMl1KitLTqP8A0jcpCKDurUiaZl0qbDFVBdwbkJzEOpDaweKvl+OazLXiYxawsIBzVmDIhxt71KyJSNfg4LgCDHKeU25T/SyvuevVb/hIJeACBap/5N+xgzs03ssL7nqeatwky0/DpzjIAXQaEwLGa6UQ8KG5z8wUAdNDlB0zZa5ZiYUsB5FQSCAYIkHzFtUMIGHRNqx1F+SSrYs7L8w/LBLcxyztpe3etlHHPFaDr78k3hxUViq7xRGbfnv5Jo2rjgBreEgkCrgZO5bW0ydLiiPgXOD2lozmDTW2h0VvEOHy2gYoJIacuUUIFeIWi1a8Oyx4OO7DIc2hjYEHsaH+Fb5UzEnXOnotXxJrg6HGaUplpJ03mVlcZqVp+IYQaRD80iZ2qaXPXvZSYpcwMKwXLsKy5YdIzKuM+YJJJgXJPaqC5aYaPhUfMkzABJiuwmDcCZjWFF5DnktENJOUbAmgXLldRJmkxhDiNifutHjGODMMuiC3hi8Uv5hcuSTylvsZiaJVy5ZaasXGYcJrQ2HiczoFanUVN23tl5rKuXK29p10ZuvRB11y5FBOfpHX2UVyCnhvFljcRoAjEEHlcSOznDuoLlydp0bDArKUWXLkUFUvGUCtAfU0XLkEk2HcdVy5BTHcIZBmGmb04jv+FFcuQbvA4zWPzYjczZFgDUEGgPKRymdFjxXSSdyb37wiuVt0kmzYbxBB2MUmunTquwXgB05qiBBisj6twuXKKVlj73RxnSbQKwOUkj7rlyIVgrumxWxHvn+Vy5NBAtPxAYct+XMZRMzeTvrEckVyd+HXpcKwXLlyy3H/2Q==;fontFamily=Verdana;strokeColor=#CC0000;" parent="1" vertex="1">
                    <mxGeometry x="-3350" y="-210" width="7423.48" height="4940" as="geometry"/>
                </mxCell>
                <mxCell id="5" value="&lt;h4 style=&quot;font-size: 60px;&quot;&gt;Adventure Game&lt;/h4&gt;" style="rounded=0;whiteSpace=wrap;html=1;fillColor=none;fontFamily=Times New Roman;fontSize=60;" parent="1" vertex="1">
                    <mxGeometry x="-1440" y="240" width="560" height="200" as="geometry"/>
                </mxCell>
                <mxCell id="17" style="edgeStyle=none;html=1;exitX=1;exitY=0;exitDx=0;exitDy=0;fontFamily=Times New Roman;fontSize=61;fontColor=#FFFFFF;endSize=46;" parent="1" source="10" target="5" edge="1">
                    <mxGeometry relative="1" as="geometry"/>
                </mxCell>
                <mxCell id="10" value="&lt;div&gt;&lt;font style=&quot;color: rgb(255, 255, 255); font-size: 102px;&quot;&gt;&lt;br&gt;&lt;/font&gt;&lt;/div&gt;&lt;font style=&quot;font-size: 102px;&quot;&gt;&lt;font&gt;&lt;font style=&quot;color: rgb(102, 255, 255);&quot;&gt;GameEnv.js&lt;/font&gt;&lt;br&gt;&lt;/font&gt;&lt;span style=&quot;background-color: initial;&quot;&gt;&lt;font style=&quot;color: rgb(255, 51, 51);&quot;&gt;Methods:&lt;/font&gt;&lt;/span&gt;&lt;/font&gt;&lt;ul&gt;&lt;li&gt;&lt;span style=&quot;background-color: initial;&quot;&gt;&lt;font style=&quot;color: rgb(255, 255, 255); font-size: 102px;&quot;&gt;this.setTop()&lt;/font&gt;&lt;/span&gt;&lt;/li&gt;&lt;li&gt;&lt;span style=&quot;background-color: initial;&quot;&gt;&lt;font style=&quot;color: rgb(255, 255, 255); font-size: 102px;&quot;&gt;this.setBottom()&lt;/font&gt;&lt;/span&gt;&lt;/li&gt;&lt;/ul&gt;&lt;font style=&quot;color: rgb(255, 51, 51); font-size: 102px;&quot;&gt;Properties:&lt;/font&gt;&lt;div&gt;&lt;ul&gt;&lt;li&gt;&lt;font style=&quot;color: rgb(255, 255, 255); font-size: 102px;&quot;&gt;maxWidth&lt;/font&gt;&lt;/li&gt;&lt;li&gt;&lt;font style=&quot;color: rgb(255, 255, 255); font-size: 102px;&quot;&gt;maxHeight&lt;/font&gt;&lt;/li&gt;&lt;/ul&gt;&lt;/div&gt;" style="rounded=0;whiteSpace=wrap;html=1;fontFamily=Times New Roman;fontSize=61;fillColor=none;strokeColor=#FF3333;strokeWidth=10;" parent="1" vertex="1">
                    <mxGeometry x="-1940" y="600" width="760" height="1160" as="geometry"/>
                </mxCell>
                <mxCell id="19" style="edgeStyle=none;html=1;exitX=0;exitY=0;exitDx=0;exitDy=0;entryX=1;entryY=1;entryDx=0;entryDy=0;fontFamily=Times New Roman;fontSize=61;fontColor=#FFFFFF;endSize=34;" parent="1" source="11" target="5" edge="1">
                    <mxGeometry relative="1" as="geometry"/>
                </mxCell>
                <mxCell id="11" value="&lt;font style=&quot;font-size: 60px;&quot;&gt;&lt;font style=&quot;&quot;&gt;&lt;font style=&quot;color: rgb(102, 255, 255);&quot;&gt;GameControl.js&lt;/font&gt;&lt;br&gt;&lt;/font&gt;&lt;font style=&quot;color: rgb(255, 51, 51);&quot;&gt;Methods:&lt;/font&gt;&lt;br&gt;&lt;/font&gt;&lt;ul style=&quot;&quot;&gt;&lt;li style=&quot;&quot;&gt;&lt;font style=&quot;color: rgb(255, 255, 255); font-size: 60px;&quot;&gt;start&lt;/font&gt;&lt;/li&gt;&lt;li style=&quot;&quot;&gt;&lt;font style=&quot;color: rgb(255, 255, 255); font-size: 60px;&quot;&gt;loadlevel&lt;/font&gt;&lt;/li&gt;&lt;li style=&quot;&quot;&gt;&lt;font style=&quot;color: rgb(255, 255, 255); font-size: 60px;&quot;&gt;gameLoop&lt;/font&gt;&lt;/li&gt;&lt;li style=&quot;&quot;&gt;&lt;font style=&quot;color: rgb(255, 255, 255); font-size: 60px;&quot;&gt;resize&lt;/font&gt;&lt;/li&gt;&lt;li style=&quot;&quot;&gt;&lt;font style=&quot;color: rgb(255, 255, 255); font-size: 60px;&quot;&gt;startTimer/stopTimer&lt;/font&gt;&lt;/li&gt;&lt;li style=&quot;&quot;&gt;&lt;font style=&quot;color: rgb(255, 255, 255); font-size: 60px;&quot;&gt;saveTime/getAllTimes&lt;/font&gt;&lt;/li&gt;&lt;li style=&quot;&quot;&gt;&lt;font style=&quot;color: rgb(255, 255, 255); font-size: 60px;&quot;&gt;updateTimer&lt;/font&gt;&lt;/li&gt;&lt;/ul&gt;&lt;div style=&quot;&quot;&gt;&lt;font style=&quot;color: rgb(255, 51, 51); font-size: 60px;&quot;&gt;Properties:&lt;/font&gt;&lt;/div&gt;&lt;div style=&quot;&quot;&gt;&lt;ul style=&quot;&quot;&gt;&lt;li style=&quot;&quot;&gt;&lt;font style=&quot;color: rgb(255, 255, 255); font-size: 60px;&quot;&gt;intervalID&lt;/font&gt;&lt;/li&gt;&lt;li style=&quot;&quot;&gt;&lt;font style=&quot;font-size: 60px;&quot; color=&quot;#ffffff&quot;&gt;localStorageTimeKey&lt;/font&gt;&lt;/li&gt;&lt;li style=&quot;&quot;&gt;&lt;font style=&quot;font-size: 60px;&quot; color=&quot;#ffffff&quot;&gt;currentPass&lt;/font&gt;&lt;/li&gt;&lt;li style=&quot;&quot;&gt;&lt;font style=&quot;font-size: 60px;&quot; color=&quot;#ffffff&quot;&gt;currentLevelIndex&lt;/font&gt;&lt;/li&gt;&lt;li style=&quot;&quot;&gt;&lt;font style=&quot;font-size: 60px;&quot; color=&quot;#ffffff&quot;&gt;levelClasses&lt;/font&gt;&lt;/li&gt;&lt;li style=&quot;&quot;&gt;&lt;font style=&quot;font-size: 60px;&quot; color=&quot;#ffffff&quot;&gt;path&lt;/font&gt;&lt;/li&gt;&lt;/ul&gt;&lt;/div&gt;" style="rounded=0;whiteSpace=wrap;html=1;fontColor=#CC0000;gradientColor=default;fillColor=none;strokeColor=#FF3333;strokeWidth=10;" parent="1" vertex="1">
                    <mxGeometry x="-810" y="480" width="1140" height="1410" as="geometry"/>
                </mxCell>
                <mxCell id="18" style="edgeStyle=none;html=1;exitX=1;exitY=0;exitDx=0;exitDy=0;fontFamily=Times New Roman;fontSize=61;fontColor=#FFFFFF;endSize=47;" parent="1" target="5" edge="1">
                    <mxGeometry relative="1" as="geometry">
                        <mxPoint x="-1420" y="580" as="sourcePoint"/>
                    </mxGeometry>
                </mxCell>
                <mxCell id="13" value="&lt;div&gt;&lt;font style=&quot;color: rgb(102, 255, 255); font-size: 88px;&quot;&gt;&lt;br&gt;&lt;/font&gt;&lt;/div&gt;&lt;font style=&quot;font-size: 88px;&quot;&gt;&lt;div style=&quot;color: light-dark(rgb(102, 255, 255), rgb(0, 74, 74));&quot;&gt;&lt;font style=&quot;color: rgb(102, 255, 255);&quot;&gt;&lt;br&gt;&lt;/font&gt;&lt;/div&gt;&lt;div style=&quot;color: light-dark(rgb(102, 255, 255), rgb(0, 74, 74));&quot;&gt;&lt;font style=&quot;color: rgb(102, 255, 255);&quot;&gt;&lt;br&gt;&lt;/font&gt;&lt;/div&gt;&lt;div style=&quot;color: light-dark(rgb(102, 255, 255), rgb(0, 74, 74));&quot;&gt;&lt;font style=&quot;color: rgb(102, 255, 255);&quot;&gt;&lt;br&gt;&lt;/font&gt;&lt;/div&gt;&lt;font style=&quot;&quot;&gt;&lt;div style=&quot;color: light-dark(rgb(102, 255, 255), rgb(0, 74, 74));&quot;&gt;&lt;font style=&quot;color: rgb(102, 255, 255);&quot;&gt;&lt;font style=&quot;&quot;&gt;&lt;br&gt;&lt;/font&gt;&lt;/font&gt;&lt;/div&gt;&lt;div style=&quot;color: light-dark(rgb(102, 255, 255), rgb(0, 74, 74));&quot;&gt;&lt;font style=&quot;color: rgb(102, 255, 255);&quot;&gt;&lt;font style=&quot;&quot;&gt;&lt;br&gt;&lt;/font&gt;&lt;/font&gt;&lt;/div&gt;&lt;div style=&quot;color: light-dark(rgb(102, 255, 255), rgb(0, 74, 74));&quot;&gt;&lt;font style=&quot;color: rgb(102, 255, 255);&quot;&gt;&lt;font style=&quot;&quot;&gt;&lt;br&gt;&lt;/font&gt;&lt;/font&gt;&lt;/div&gt;&lt;font style=&quot;color: rgb(102, 255, 255);&quot;&gt;&lt;div&gt;&lt;font style=&quot;font-size: 88px;&quot;&gt;&lt;font style=&quot;&quot;&gt;&lt;font style=&quot;color: rgb(102, 255, 255);&quot;&gt;&lt;br&gt;&lt;/font&gt;&lt;/font&gt;&lt;/font&gt;&lt;/div&gt;Character.js&lt;/font&gt;&lt;/font&gt;&lt;/font&gt;&lt;div&gt;&lt;div&gt;&lt;font style=&quot;font-size: 88px;&quot;&gt;&lt;font style=&quot;color: rgb(255, 51, 51);&quot;&gt;Method&lt;/font&gt;&lt;font style=&quot;color: rgb(255, 51, 51);&quot;&gt;s&lt;/font&gt;&lt;/font&gt;&lt;/div&gt;&lt;div&gt;&lt;ul&gt;&lt;li&gt;&lt;font style=&quot;color: rgb(255, 255, 255); font-size: 88px;&quot;&gt;update&lt;/font&gt;&lt;/li&gt;&lt;li&gt;&lt;font style=&quot;color: rgb(255, 255, 255); font-size: 88px;&quot;&gt;draw&lt;/font&gt;&lt;/li&gt;&lt;li&gt;&lt;font style=&quot;color: rgb(255, 255, 255); font-size: 88px;&quot;&gt;size&lt;/font&gt;&lt;/li&gt;&lt;/ul&gt;&lt;font style=&quot;color: rgb(255, 51, 51); font-size: 88px;&quot;&gt;Properties&lt;/font&gt;&lt;/div&gt;&lt;div&gt;&lt;ul&gt;&lt;li&gt;&lt;font style=&quot;color: rgb(255, 255, 255); font-size: 88px;&quot;&gt;spriteWidth&lt;/font&gt;&lt;/li&gt;&lt;li&gt;&lt;font style=&quot;color: rgb(255, 255, 255); font-size: 88px;&quot;&gt;spriteHeight&lt;/font&gt;&lt;/li&gt;&lt;li&gt;&lt;font style=&quot;color: rgb(255, 255, 255); font-size: 88px;&quot;&gt;frameX&lt;/font&gt;&lt;/li&gt;&lt;li&gt;&lt;font style=&quot;color: rgb(255, 255, 255); font-size: 88px;&quot;&gt;frameY&lt;/font&gt;&lt;/li&gt;&lt;/ul&gt;&lt;/div&gt;&lt;div&gt;&lt;font style=&quot;color: rgb(102, 255, 255); font-size: 88px;&quot;&gt;&lt;br&gt;&lt;/font&gt;&lt;/div&gt;&lt;div&gt;&lt;font style=&quot;color: rgb(102, 255, 255); font-size: 88px;&quot;&gt;&lt;br&gt;&lt;/font&gt;&lt;/div&gt;&lt;div&gt;&lt;font style=&quot;color: rgb(102, 255, 255); font-size: 88px;&quot;&gt;&lt;br&gt;&lt;/font&gt;&lt;/div&gt;&lt;div&gt;&lt;font style=&quot;color: rgb(102, 255, 255); font-size: 88px;&quot;&gt;&lt;br&gt;&lt;/font&gt;&lt;/div&gt;&lt;div&gt;&lt;font style=&quot;color: rgb(102, 255, 255); font-size: 88px;&quot;&gt;&lt;br&gt;&lt;/font&gt;&lt;/div&gt;&lt;div&gt;&lt;font style=&quot;color: rgb(102, 255, 255); font-size: 88px;&quot;&gt;&lt;br&gt;&lt;/font&gt;&lt;/div&gt;&lt;div&gt;&lt;font style=&quot;color: rgb(102, 255, 255); font-size: 88px;&quot;&gt;&lt;br&gt;&lt;/font&gt;&lt;/div&gt;&lt;div&gt;&lt;font style=&quot;color: rgb(102, 255, 255);&quot;&gt;&lt;br&gt;&lt;/font&gt;&lt;/div&gt;&lt;/div&gt;" style="rounded=0;whiteSpace=wrap;html=1;fontFamily=Times New Roman;fontSize=61;fontColor=#66FFFF;fillColor=none;gradientColor=default;strokeColor=#FF3333;strokeWidth=11;" parent="1" vertex="1">
                    <mxGeometry x="-1810" y="2000" width="990" height="1300" as="geometry"/>
                </mxCell>
                <mxCell id="23" style="edgeStyle=none;html=1;exitX=1;exitY=0;exitDx=0;exitDy=0;entryX=0;entryY=1;entryDx=0;entryDy=0;strokeWidth=14;strokeColor=#FFFFFF;" edge="1" parent="1" source="21" target="13">
                    <mxGeometry relative="1" as="geometry"/>
                </mxCell>
                <mxCell id="21" value="&lt;div&gt;&lt;font style=&quot;color: rgb(102, 255, 255); font-size: 88px;&quot;&gt;&lt;br&gt;&lt;/font&gt;&lt;/div&gt;&lt;font style=&quot;font-size: 88px;&quot;&gt;&lt;div style=&quot;color: light-dark(rgb(102, 255, 255), rgb(0, 74, 74));&quot;&gt;&lt;font style=&quot;color: rgb(102, 255, 255);&quot;&gt;&lt;br&gt;&lt;/font&gt;&lt;/div&gt;&lt;div style=&quot;color: light-dark(rgb(102, 255, 255), rgb(0, 74, 74));&quot;&gt;&lt;font style=&quot;color: rgb(102, 255, 255);&quot;&gt;&lt;br&gt;&lt;/font&gt;&lt;/div&gt;&lt;div style=&quot;color: light-dark(rgb(102, 255, 255), rgb(0, 74, 74));&quot;&gt;&lt;font style=&quot;color: rgb(102, 255, 255);&quot;&gt;&lt;br&gt;&lt;/font&gt;&lt;/div&gt;&lt;font style=&quot;&quot;&gt;&lt;div style=&quot;color: light-dark(rgb(102, 255, 255), rgb(0, 74, 74));&quot;&gt;&lt;font style=&quot;color: rgb(102, 255, 255);&quot;&gt;&lt;font style=&quot;&quot;&gt;&lt;br&gt;&lt;/font&gt;&lt;/font&gt;&lt;/div&gt;&lt;div style=&quot;color: light-dark(rgb(102, 255, 255), rgb(0, 74, 74));&quot;&gt;&lt;font style=&quot;color: rgb(102, 255, 255);&quot;&gt;&lt;font style=&quot;&quot;&gt;&lt;br&gt;&lt;/font&gt;&lt;/font&gt;&lt;/div&gt;&lt;div style=&quot;color: light-dark(rgb(102, 255, 255), rgb(0, 74, 74));&quot;&gt;&lt;font style=&quot;color: rgb(102, 255, 255);&quot;&gt;&lt;font style=&quot;&quot;&gt;&lt;br&gt;&lt;/font&gt;&lt;/font&gt;&lt;/div&gt;&lt;font style=&quot;color: rgb(102, 255, 255);&quot;&gt;&lt;div&gt;&lt;font style=&quot;font-size: 88px;&quot;&gt;&lt;font style=&quot;&quot;&gt;&lt;font style=&quot;color: rgb(102, 255, 255);&quot;&gt;&lt;br&gt;&lt;/font&gt;&lt;/font&gt;&lt;/font&gt;&lt;/div&gt;Player.js&lt;/font&gt;&lt;/font&gt;&lt;/font&gt;&lt;div&gt;&lt;div&gt;&lt;font style=&quot;font-size: 88px;&quot;&gt;&lt;font style=&quot;color: rgb(255, 51, 51);&quot;&gt;Method&lt;/font&gt;&lt;font style=&quot;color: rgb(255, 51, 51);&quot;&gt;s&lt;/font&gt;&lt;/font&gt;&lt;/div&gt;&lt;div&gt;&lt;ul&gt;&lt;li&gt;&lt;font style=&quot;color: rgb(255, 255, 255); font-size: 88px;&quot;&gt;handleKeyDown&lt;/font&gt;&lt;/li&gt;&lt;li&gt;&lt;font style=&quot;color: rgb(255, 255, 255); font-size: 88px;&quot;&gt;HandleKeyup&lt;/font&gt;&lt;/li&gt;&lt;li&gt;&lt;font style=&quot;color: rgb(255, 255, 255); font-size: 88px;&quot;&gt;draw&lt;/font&gt;&lt;/li&gt;&lt;li&gt;&lt;font style=&quot;color: rgb(255, 255, 255); font-size: 88px;&quot;&gt;update&lt;/font&gt;&lt;/li&gt;&lt;li&gt;&lt;font style=&quot;color: rgb(255, 255, 255); font-size: 88px;&quot;&gt;handleIdleAnimation&lt;/font&gt;&lt;/li&gt;&lt;/ul&gt;&lt;br&gt;&lt;/div&gt;&lt;div&gt;&lt;font style=&quot;color: rgb(102, 255, 255); font-size: 88px;&quot;&gt;&lt;br&gt;&lt;/font&gt;&lt;/div&gt;&lt;div&gt;&lt;font style=&quot;color: rgb(102, 255, 255); font-size: 88px;&quot;&gt;&lt;br&gt;&lt;/font&gt;&lt;/div&gt;&lt;div&gt;&lt;font style=&quot;color: rgb(102, 255, 255); font-size: 88px;&quot;&gt;&lt;br&gt;&lt;/font&gt;&lt;/div&gt;&lt;div&gt;&lt;font style=&quot;color: rgb(102, 255, 255); font-size: 88px;&quot;&gt;&lt;br&gt;&lt;/font&gt;&lt;/div&gt;&lt;div&gt;&lt;font style=&quot;color: rgb(102, 255, 255); font-size: 88px;&quot;&gt;&lt;br&gt;&lt;/font&gt;&lt;/div&gt;&lt;div&gt;&lt;font style=&quot;color: rgb(102, 255, 255); font-size: 88px;&quot;&gt;&lt;br&gt;&lt;/font&gt;&lt;/div&gt;&lt;div&gt;&lt;font style=&quot;color: rgb(102, 255, 255); font-size: 88px;&quot;&gt;&lt;br&gt;&lt;/font&gt;&lt;/div&gt;&lt;div&gt;&lt;font style=&quot;color: rgb(102, 255, 255);&quot;&gt;&lt;br&gt;&lt;/font&gt;&lt;/div&gt;&lt;/div&gt;" style="rounded=0;whiteSpace=wrap;html=1;fontFamily=Times New Roman;fontSize=61;fontColor=#66FFFF;fillColor=none;gradientColor=default;strokeColor=#FF3333;strokeWidth=11;" vertex="1" parent="1">
                    <mxGeometry x="-3140" y="3620" width="1080" height="910" as="geometry"/>
                </mxCell>
                <mxCell id="24" value="&lt;div&gt;&lt;font style=&quot;color: rgb(102, 255, 255); font-size: 88px;&quot;&gt;&lt;br&gt;&lt;/font&gt;&lt;/div&gt;&lt;font style=&quot;&quot;&gt;&lt;div style=&quot;font-size: 88px; color: light-dark(rgb(102, 255, 255), rgb(0, 74, 74));&quot;&gt;&lt;font style=&quot;color: rgb(102, 255, 255);&quot;&gt;&lt;br&gt;&lt;/font&gt;&lt;/div&gt;&lt;div style=&quot;font-size: 88px; color: light-dark(rgb(102, 255, 255), rgb(0, 74, 74));&quot;&gt;&lt;font style=&quot;color: rgb(102, 255, 255);&quot;&gt;&lt;br&gt;&lt;/font&gt;&lt;/div&gt;&lt;div style=&quot;font-size: 88px; color: light-dark(rgb(102, 255, 255), rgb(0, 74, 74));&quot;&gt;&lt;font style=&quot;color: rgb(102, 255, 255);&quot;&gt;&lt;br&gt;&lt;/font&gt;&lt;/div&gt;&lt;font style=&quot;&quot;&gt;&lt;div style=&quot;font-size: 88px; color: light-dark(rgb(102, 255, 255), rgb(0, 74, 74));&quot;&gt;&lt;font style=&quot;color: rgb(102, 255, 255);&quot;&gt;&lt;font style=&quot;&quot;&gt;&lt;br&gt;&lt;/font&gt;&lt;/font&gt;&lt;/div&gt;&lt;div style=&quot;font-size: 88px; color: light-dark(rgb(102, 255, 255), rgb(0, 74, 74));&quot;&gt;&lt;font style=&quot;color: rgb(102, 255, 255);&quot;&gt;&lt;font style=&quot;&quot;&gt;&lt;br&gt;&lt;/font&gt;&lt;/font&gt;&lt;/div&gt;&lt;div style=&quot;font-size: 88px; color: light-dark(rgb(102, 255, 255), rgb(0, 74, 74));&quot;&gt;&lt;font style=&quot;color: rgb(102, 255, 255);&quot;&gt;&lt;font style=&quot;&quot;&gt;&lt;br&gt;&lt;/font&gt;&lt;/font&gt;&lt;/div&gt;&lt;font&gt;&lt;div style=&quot;color: light-dark(rgb(102, 255, 255), rgb(0, 74, 74)); font-size: 88px;&quot;&gt;&lt;font style=&quot;font-size: 88px;&quot;&gt;&lt;font style=&quot;&quot;&gt;&lt;font style=&quot;color: rgb(102, 255, 255);&quot;&gt;&lt;br&gt;&lt;/font&gt;&lt;/font&gt;&lt;/font&gt;&lt;/div&gt;&lt;font style=&quot;font-size: 81px;&quot;&gt;&lt;div style=&quot;color: light-dark(rgb(102, 255, 255), rgb(0, 74, 74));&quot;&gt;&lt;font style=&quot;&quot;&gt;&lt;font style=&quot;&quot;&gt;&lt;font style=&quot;color: rgb(102, 255, 255);&quot;&gt;&lt;font style=&quot;font-size: 81px;&quot;&gt;&lt;br&gt;&lt;/font&gt;&lt;/font&gt;&lt;/font&gt;&lt;/font&gt;&lt;/div&gt;&lt;font style=&quot;color: rgb(102, 255, 255);&quot;&gt;Npc.js&lt;/font&gt;&lt;/font&gt;&lt;/font&gt;&lt;/font&gt;&lt;/font&gt;&lt;div&gt;&lt;div&gt;&lt;font style=&quot;font-size: 81px;&quot;&gt;&lt;font style=&quot;color: rgb(255, 51, 51);&quot;&gt;Method&lt;/font&gt;&lt;font style=&quot;color: rgb(255, 51, 51);&quot;&gt;s&lt;/font&gt;&lt;/font&gt;&lt;/div&gt;&lt;div&gt;&lt;ul&gt;&lt;li&gt;&lt;font style=&quot;color: rgb(255, 255, 255); font-size: 81px;&quot;&gt;update&lt;/font&gt;&lt;/li&gt;&lt;li&gt;&lt;font style=&quot;color: rgb(255, 255, 255); font-size: 81px;&quot;&gt;bindEventListeners&lt;/font&gt;&lt;/li&gt;&lt;li&gt;&lt;font style=&quot;color: rgb(255, 255, 255); font-size: 81px;&quot;&gt;handleKeydown&lt;/font&gt;&lt;/li&gt;&lt;li&gt;&lt;font style=&quot;color: rgb(255, 255, 255); font-size: 81px;&quot;&gt;handleKeyUp&lt;/font&gt;&lt;/li&gt;&lt;li&gt;&lt;font style=&quot;color: rgb(255, 255, 255); font-size: 81px;&quot;&gt;getNextQuestion&lt;/font&gt;&lt;/li&gt;&lt;li&gt;&lt;font style=&quot;color: rgb(255, 255, 255); font-size: 81px;&quot;&gt;shareQuizQuestion&lt;/font&gt;&lt;/li&gt;&lt;/ul&gt;&lt;br&gt;&lt;/div&gt;&lt;div&gt;&lt;font style=&quot;color: rgb(102, 255, 255); font-size: 88px;&quot;&gt;&lt;br&gt;&lt;/font&gt;&lt;/div&gt;&lt;div&gt;&lt;font style=&quot;color: rgb(102, 255, 255); font-size: 88px;&quot;&gt;&lt;br&gt;&lt;/font&gt;&lt;/div&gt;&lt;div&gt;&lt;font style=&quot;color: rgb(102, 255, 255); font-size: 88px;&quot;&gt;&lt;br&gt;&lt;/font&gt;&lt;/div&gt;&lt;div&gt;&lt;font style=&quot;color: rgb(102, 255, 255); font-size: 88px;&quot;&gt;&lt;br&gt;&lt;/font&gt;&lt;/div&gt;&lt;div&gt;&lt;font style=&quot;color: rgb(102, 255, 255); font-size: 88px;&quot;&gt;&lt;br&gt;&lt;/font&gt;&lt;/div&gt;&lt;div&gt;&lt;font style=&quot;color: rgb(102, 255, 255); font-size: 88px;&quot;&gt;&lt;br&gt;&lt;/font&gt;&lt;/div&gt;&lt;div&gt;&lt;font style=&quot;color: rgb(102, 255, 255); font-size: 88px;&quot;&gt;&lt;br&gt;&lt;/font&gt;&lt;/div&gt;&lt;div&gt;&lt;font style=&quot;color: rgb(102, 255, 255);&quot;&gt;&lt;br&gt;&lt;/font&gt;&lt;/div&gt;&lt;/div&gt;" style="rounded=0;whiteSpace=wrap;html=1;fontFamily=Times New Roman;fontSize=61;fontColor=#66FFFF;fillColor=none;gradientColor=default;strokeColor=#FF3333;strokeWidth=11;" vertex="1" parent="1">
                    <mxGeometry x="-1815" y="3730" width="1080" height="910" as="geometry"/>
                </mxCell>
                <mxCell id="25" style="edgeStyle=none;html=1;exitX=0.5;exitY=0;exitDx=0;exitDy=0;entryX=0.528;entryY=-0.495;entryDx=0;entryDy=0;entryPerimeter=0;strokeWidth=14;strokeColor=#FFFFFF;" edge="1" parent="1">
                    <mxGeometry relative="1" as="geometry">
                        <mxPoint x="-1340" y="3750.45" as="sourcePoint"/>
                        <mxPoint x="-1309.7600000000002" y="3300" as="targetPoint"/>
                    </mxGeometry>
                </mxCell>
                <mxCell id="27" style="edgeStyle=none;html=1;exitX=0;exitY=0;exitDx=0;exitDy=0;entryX=1;entryY=1;entryDx=0;entryDy=0;strokeWidth=14;strokeColor=#FFFFFF;" edge="1" parent="1" source="26" target="13">
                    <mxGeometry relative="1" as="geometry"/>
                </mxCell>
                <mxCell id="26" value="&lt;div&gt;&lt;font style=&quot;color: rgb(102, 255, 255); font-size: 88px;&quot;&gt;&lt;br&gt;&lt;/font&gt;&lt;/div&gt;&lt;font style=&quot;&quot;&gt;&lt;div style=&quot;font-size: 88px; color: light-dark(rgb(102, 255, 255), rgb(0, 74, 74));&quot;&gt;&lt;font style=&quot;color: rgb(102, 255, 255);&quot;&gt;&lt;br&gt;&lt;/font&gt;&lt;/div&gt;&lt;div style=&quot;font-size: 88px; color: light-dark(rgb(102, 255, 255), rgb(0, 74, 74));&quot;&gt;&lt;font style=&quot;color: rgb(102, 255, 255);&quot;&gt;&lt;br&gt;&lt;/font&gt;&lt;/div&gt;&lt;div style=&quot;font-size: 88px; color: light-dark(rgb(102, 255, 255), rgb(0, 74, 74));&quot;&gt;&lt;font style=&quot;color: rgb(102, 255, 255);&quot;&gt;&lt;br&gt;&lt;/font&gt;&lt;/div&gt;&lt;font style=&quot;&quot;&gt;&lt;div style=&quot;font-size: 88px; color: light-dark(rgb(102, 255, 255), rgb(0, 74, 74));&quot;&gt;&lt;font style=&quot;color: rgb(102, 255, 255);&quot;&gt;&lt;font style=&quot;&quot;&gt;&lt;br&gt;&lt;/font&gt;&lt;/font&gt;&lt;/div&gt;&lt;div style=&quot;font-size: 88px; color: light-dark(rgb(102, 255, 255), rgb(0, 74, 74));&quot;&gt;&lt;font style=&quot;color: rgb(102, 255, 255);&quot;&gt;&lt;font style=&quot;&quot;&gt;&lt;br&gt;&lt;/font&gt;&lt;/font&gt;&lt;/div&gt;&lt;div style=&quot;font-size: 88px; color: light-dark(rgb(102, 255, 255), rgb(0, 74, 74));&quot;&gt;&lt;font style=&quot;color: rgb(102, 255, 255);&quot;&gt;&lt;font style=&quot;&quot;&gt;&lt;br&gt;&lt;/font&gt;&lt;/font&gt;&lt;/div&gt;&lt;font&gt;&lt;div style=&quot;color: light-dark(rgb(102, 255, 255), rgb(0, 74, 74)); font-size: 88px;&quot;&gt;&lt;font style=&quot;font-size: 88px;&quot;&gt;&lt;font style=&quot;&quot;&gt;&lt;font style=&quot;color: rgb(102, 255, 255);&quot;&gt;&lt;br&gt;&lt;/font&gt;&lt;/font&gt;&lt;/font&gt;&lt;/div&gt;&lt;font style=&quot;font-size: 81px;&quot;&gt;&lt;div style=&quot;color: light-dark(rgb(102, 255, 255), rgb(0, 74, 74));&quot;&gt;&lt;font style=&quot;&quot;&gt;&lt;font style=&quot;&quot;&gt;&lt;font style=&quot;color: rgb(102, 255, 255);&quot;&gt;&lt;font style=&quot;font-size: 81px;&quot;&gt;&lt;br&gt;&lt;/font&gt;&lt;/font&gt;&lt;/font&gt;&lt;/font&gt;&lt;/div&gt;&lt;font style=&quot;color: rgb(102, 255, 255);&quot;&gt;Tree.js&lt;/font&gt;&lt;/font&gt;&lt;/font&gt;&lt;/font&gt;&lt;/font&gt;&lt;div&gt;&lt;div&gt;&lt;font style=&quot;font-size: 81px;&quot;&gt;&lt;font style=&quot;color: rgb(255, 51, 51);&quot;&gt;Method&lt;/font&gt;&lt;font style=&quot;color: rgb(255, 51, 51);&quot;&gt;s&lt;/font&gt;&lt;/font&gt;&lt;/div&gt;&lt;div&gt;&lt;ul&gt;&lt;li&gt;&lt;font style=&quot;color: rgb(255, 255, 255); font-size: 81px;&quot;&gt;chopTree&lt;/font&gt;&lt;/li&gt;&lt;li&gt;&lt;font style=&quot;color: rgb(255, 255, 255); font-size: 81px;&quot;&gt;draw&lt;/font&gt;&lt;/li&gt;&lt;li&gt;&lt;font style=&quot;color: rgb(255, 255, 255); font-size: 81px;&quot;&gt;update&lt;/font&gt;&lt;/li&gt;&lt;/ul&gt;&lt;br&gt;&lt;/div&gt;&lt;div&gt;&lt;font style=&quot;color: rgb(102, 255, 255); font-size: 88px;&quot;&gt;&lt;br&gt;&lt;/font&gt;&lt;/div&gt;&lt;div&gt;&lt;font style=&quot;color: rgb(102, 255, 255); font-size: 88px;&quot;&gt;&lt;br&gt;&lt;/font&gt;&lt;/div&gt;&lt;div&gt;&lt;font style=&quot;color: rgb(102, 255, 255); font-size: 88px;&quot;&gt;&lt;br&gt;&lt;/font&gt;&lt;/div&gt;&lt;div&gt;&lt;font style=&quot;color: rgb(102, 255, 255); font-size: 88px;&quot;&gt;&lt;br&gt;&lt;/font&gt;&lt;/div&gt;&lt;div&gt;&lt;font style=&quot;color: rgb(102, 255, 255); font-size: 88px;&quot;&gt;&lt;br&gt;&lt;/font&gt;&lt;/div&gt;&lt;div&gt;&lt;font style=&quot;color: rgb(102, 255, 255); font-size: 88px;&quot;&gt;&lt;br&gt;&lt;/font&gt;&lt;/div&gt;&lt;div&gt;&lt;font style=&quot;color: rgb(102, 255, 255); font-size: 88px;&quot;&gt;&lt;br&gt;&lt;/font&gt;&lt;/div&gt;&lt;div&gt;&lt;font style=&quot;color: rgb(102, 255, 255);&quot;&gt;&lt;br&gt;&lt;/font&gt;&lt;/div&gt;&lt;/div&gt;" style="rounded=0;whiteSpace=wrap;html=1;fontFamily=Times New Roman;fontSize=61;fontColor=#66FFFF;fillColor=none;gradientColor=default;strokeColor=#FF3333;strokeWidth=11;" vertex="1" parent="1">
                    <mxGeometry x="-530" y="3760" width="1080" height="910" as="geometry"/>
                </mxCell>
            </root>
        </mxGraphModel>
    </diagram>
</mxfile>